<svg width="69" height="78" viewBox="0 0 69 78" fill="none" xmlns="http://www.w3.org/2000/svg">
<path d="M65.6365 0.639893H2.92075C1.41847 0.639893 0.291398 1.91113 0.423937 3.41324L6.15226 67.6057C6.28496 69.1067 7.5832 70.6777 9.03933 71.0833L31.6211 77.356C33.0753 77.7591 35.4522 77.7617 36.9085 77.3613L59.5182 71.0974C60.9747 70.6929 62.2729 69.1361 62.4055 67.6326L68.1362 3.41324C68.2688 1.91113 67.1464 0.639893 65.6365 0.639893ZM54.7599 23.8116C54.7589 23.8214 54.7512 23.8291 54.7416 23.8307C54.7317 23.8323 54.7223 23.8273 54.718 23.8181L37.0258 31.0683C36.7738 31.1716 36.6301 31.4388 36.6825 31.706C36.7352 31.9732 36.9695 32.166 37.2419 32.166H51.0036C51.7357 32.166 52.4331 32.4769 52.9227 33.0213C53.4121 33.5656 53.6474 34.2923 53.5697 35.0201L51.4194 55.1912C51.3139 56.1808 50.6489 57.0215 49.71 57.3519L35.103 62.4915C34.5529 62.6852 33.9532 62.6867 33.4017 62.4956L18.863 57.4594C17.9183 57.1321 17.2478 56.289 17.1416 55.2949L16.1668 46.1598C16.1156 45.6802 16.2706 45.2015 16.5929 44.843C16.9155 44.4843 17.3749 44.2794 17.8573 44.2794H21.903C22.7724 44.2794 23.5015 44.9351 23.5935 45.7994L24.1915 51.4145L34.2582 54.9137L44.3709 51.3826L45.6078 39.7371H17.0148C16.148 39.7371 15.42 39.085 15.325 38.2235L14.7806 33.2878C14.6975 32.5349 15.1222 31.8181 15.8222 31.5296L34.122 23.9848C34.3297 23.8993 34.4476 23.6792 34.4041 23.4589C34.3604 23.2389 34.1675 23.0803 33.9432 23.0803H14.676C14.096 23.0803 13.6095 22.6423 13.5489 22.0656L12.9916 16.7606C12.9581 16.4414 13.0617 16.1228 13.2765 15.8841C13.4913 15.6455 13.7975 15.5092 14.1185 15.5092H54.4333C54.7561 15.5092 55.0636 15.647 55.2786 15.8877C55.4936 16.1285 55.5957 16.4496 55.5592 16.7703L54.7599 23.8116Z" fill="#C3AEFF"/>
</svg>
