<svg xmlns="http://www.w3.org/2000/svg" width="28" height="27" viewBox="0 0 28 27" fill="">
  <g clip-path="url(#clip0_1_31)">
    <path d="M24.0823 4.59216H3.92768C2.13147 4.59216 0.669998 6.05364 0.669998 7.84985V19.4404C0.669998 21.2366 2.13147 22.698 3.92768 22.698H24.0823C25.8785 22.698 27.34 21.2366 27.34 19.4404V7.8502C27.3404 6.05364 25.8789 4.59216 24.0823 4.59216ZM22.4905 6.71743L14.005 12.1843L5.51951 6.71743H22.4905ZM24.0823 20.5731H3.92768C3.30321 20.5731 2.79527 20.0648 2.79527 19.4407V7.91042L13.3494 14.6971C13.3635 14.706 13.3788 14.712 13.3933 14.7201C13.4085 14.7286 13.4241 14.7368 13.4397 14.7446C13.5215 14.7867 13.6058 14.8207 13.6919 14.843C13.7007 14.8455 13.7096 14.8466 13.7184 14.8487C13.813 14.871 13.9087 14.8848 14.0043 14.8848H14.005C14.0057 14.8848 14.0064 14.8848 14.0064 14.8848C14.1021 14.8848 14.1977 14.8714 14.2923 14.8487C14.3011 14.8466 14.31 14.8455 14.3188 14.843C14.4049 14.8207 14.4889 14.7867 14.571 14.7446C14.5866 14.7368 14.6022 14.7286 14.6174 14.7201C14.632 14.712 14.6472 14.706 14.6614 14.6971L25.2154 7.91042V19.4404C25.2151 20.0648 24.7068 20.5731 24.0823 20.5731Z" fill="#CCCCCC"/>
  </g>
  <defs>
    <clipPath id="clip0_1_31">
      <rect width="26.67" height="26.67" fill="white" transform="translate(0.669998 0.310059)"/>
    </clipPath>
  </defs>
</svg>