<svg width="78" height="78" viewBox="0 0 78 78" fill="none" xmlns="http://www.w3.org/2000/svg">
<g id="figma.svg">
<path id="Vector" d="M50.7143 27.1156C53.9061 27.1156 56.967 25.8477 59.2239 23.5908C61.4808 21.334 62.7487 18.273 62.7487 15.0812C62.7487 11.8895 61.4808 8.82854 59.2239 6.57166C56.967 4.31478 53.9061 3.04688 50.7143 3.04688H26.6456C23.4539 3.04688 20.3929 4.31478 18.136 6.57166C15.8791 8.82854 14.6112 11.8895 14.6112 15.0812C14.6112 18.273 15.8791 21.334 18.136 23.5908C20.3929 25.8477 23.4539 27.1156 26.6456 27.1156C23.4539 27.1156 20.3929 28.3835 18.136 30.6404C15.8791 32.8973 14.6112 35.9583 14.6112 39.15C14.6112 42.3417 15.8791 45.4027 18.136 47.6596C20.3929 49.9165 23.4539 51.1844 26.6456 51.1844C24.2654 51.1844 21.9387 51.8902 19.9597 53.2125C17.9806 54.5349 16.4381 56.4144 15.5273 58.6134C14.6164 60.8124 14.3781 63.2321 14.8425 65.5665C15.3068 67.901 16.453 70.0453 18.136 71.7283C19.819 73.4114 21.9634 74.5575 24.2978 75.0219C26.6322 75.4862 29.052 75.2479 31.2509 74.3371C33.4499 73.4262 35.3295 71.8837 36.6518 69.9047C37.9742 67.9256 38.68 65.5989 38.68 63.2187V27.1156H50.7143Z" fill="#C3AEFF"/>
<path id="Vector_2" d="M50.7143 51.1842C57.3607 51.1842 62.7487 45.7963 62.7487 39.1499C62.7487 32.5035 57.3607 27.1155 50.7143 27.1155C44.0679 27.1155 38.68 32.5035 38.68 39.1499C38.68 45.7963 44.0679 51.1842 50.7143 51.1842Z" fill="#C3AEFF"/>
</g>
</svg>
