<svg width="78" height="78" viewBox="0 0 78 78" fill="none" xmlns="http://www.w3.org/2000/svg">
<path d="M76.1473 35.7182L42.5197 2.09237C40.5843 0.155735 37.4433 0.155735 35.5055 2.09237L28.5225 9.07531L37.3807 17.9335C39.4392 17.2379 41.7997 17.7046 43.4406 19.3454C45.0893 20.9969 45.5527 23.3776 44.8402 25.4427L53.3771 33.9798C55.4425 33.2683 57.8256 33.7286 59.4752 35.381C61.7807 37.6855 61.7807 41.4207 59.4752 43.7268C57.1691 46.0332 53.434 46.0332 51.1267 43.7268C49.3925 41.9908 48.9641 39.4441 49.842 37.3077L41.8807 29.3463L41.8798 50.2973C42.4569 50.5826 42.984 50.9596 43.4406 51.4134C45.7461 53.718 45.7461 57.4535 43.4406 59.7614C41.1345 62.0666 37.3976 62.0666 35.0948 59.7614C32.7893 57.4535 32.7893 53.7183 35.0948 51.4137C35.6473 50.861 36.3039 50.4232 37.0266 50.1258V28.9796C36.3028 28.6841 35.6459 28.2461 35.0948 27.6916C33.348 25.9472 32.928 23.3842 33.8231 21.2394L25.091 12.5063L2.03313 35.5627C0.0956039 37.5011 0.0956039 40.6424 2.03313 42.5793L35.6613 76.2058C37.5974 78.1427 40.7377 78.1427 42.6761 76.2058L76.147 42.7355C78.0839 40.7979 78.0842 37.6548 76.1473 35.7182Z" fill="#C3AEFF"/>
</svg>
