<svg width="69" height="78" viewBox="0 0 69 78" fill="none" xmlns="http://www.w3.org/2000/svg">
<path d="M2.11226 0.639893C1.40439 0.639893 0.876961 1.21674 0.939768 1.92178L6.90749 68.8597C6.9703 69.5647 7.57958 70.2965 8.26196 70.486L33.5859 77.5173C34.268 77.7067 35.3842 77.7067 36.0665 77.5178L61.4674 70.4749C62.1496 70.2857 62.7596 69.5539 62.8224 68.8491L68.7999 1.92178C68.8633 1.21674 68.3353 0.639893 67.6274 0.639893H2.11226ZM56.091 15.9919C56.0346 16.6207 55.9371 17.7124 55.8743 18.4174L55.717 20.1737C55.6537 20.8785 55.5636 21.8865 55.5159 22.4134C55.4686 22.9406 55.4235 23.3717 55.4153 23.3717C55.4073 23.3717 54.8215 23.3717 54.1136 23.3717H36.1569C35.449 23.3717 34.8639 23.3717 34.8562 23.3717C34.8485 23.3717 34.2629 23.3717 33.555 23.3717H24.0979C23.39 23.3717 22.8626 23.9486 22.9254 24.6536L23.477 30.8198C23.5398 31.5246 24.1707 32.1017 24.8786 32.1017H33.5553C34.2631 32.1017 34.8487 32.1017 34.8565 32.1017C34.8642 32.1017 35.4493 32.1017 36.1571 32.1017H51.071C51.7789 32.1017 52.8744 32.1017 53.5053 32.1017C54.1357 32.1017 54.6052 32.6163 54.5481 33.2451C54.4907 33.874 54.3926 34.9659 54.3298 35.6707L52.556 55.5497C52.4927 56.2547 52.4126 57.1554 52.3782 57.5513C52.3429 57.9469 51.7563 58.4254 51.0741 58.6146L36.1103 62.7638C35.4282 62.9527 34.8614 63.1092 34.8508 63.1115C34.8403 63.1138 34.2737 62.9607 33.5913 62.7715L18.6115 58.6149C17.9294 58.4257 17.3199 57.6939 17.257 56.9888L16.2928 46.1662C16.23 45.4611 16.7579 44.8843 17.4658 44.8843H18.8329C19.5408 44.8843 20.6991 44.8843 21.407 44.8843H23.4456C24.1535 44.8843 24.7839 45.4611 24.8472 46.1662L25.2253 50.4028C25.2881 51.1079 25.8985 51.8355 26.5821 52.0201L33.589 53.9123C34.2722 54.0969 34.8338 54.248 34.8369 54.248C34.84 54.248 35.4014 54.0966 36.0848 53.912L43.1043 52.0152C43.7875 51.8307 44.3983 51.1027 44.4616 50.3979L45.2228 41.9097C45.2861 41.2046 44.7587 40.6278 44.0508 40.6278H36.1571C35.4493 40.6278 34.8642 40.6278 34.8565 40.6278C34.8487 40.6278 34.2631 40.6278 33.5553 40.6278H17.0841C16.3762 40.6278 15.7458 40.0507 15.683 39.3459L13.8153 18.4172C13.7525 17.7121 13.6549 16.6207 13.5985 15.9916C13.5427 15.3628 14.0758 14.8482 14.7836 14.8482H33.5553C34.2631 14.8482 34.8487 14.8482 34.8565 14.8482C34.8642 14.8482 35.4493 14.8482 36.1571 14.8482H54.9061C55.6138 14.8482 56.1471 15.3628 56.091 15.9919Z" fill="#C3AEFF"/>
</svg>
