<svg width="58" height="59" viewBox="0 0 58 59" fill="none" xmlns="http://www.w3.org/2000/svg">
<path d="M0.207489 10.6971C0.207489 4.9369 4.87705 0.267334 10.6373 0.267334H47.5427C53.3028 0.267334 57.9725 4.9369 57.9725 10.6971V47.6025C57.9725 53.3627 53.3028 58.0323 47.5427 58.0323H10.6373C4.87705 58.0323 0.207489 53.3627 0.207489 47.6025V10.6971ZM29.09 21.1269C27.7608 21.1269 26.6831 22.2045 26.6831 23.5338V42.7888C26.6831 43.232 26.324 43.5911 25.8808 43.5911H21.8694C20.5401 43.5911 19.4625 44.6687 19.4625 45.998C19.4625 47.3272 20.5401 48.4048 21.8694 48.4048H25.8808C28.9825 48.4048 31.4969 45.8905 31.4969 42.7888V23.5338C31.4969 22.2045 30.4192 21.1269 29.09 21.1269ZM35.5083 26.743V31.5567C35.5083 34.6584 38.0227 37.1727 41.1244 37.1727H42.7289C43.1721 37.1727 43.5312 37.5319 43.5312 37.975V42.7888C43.5312 43.232 43.1721 43.5911 42.7289 43.5911H37.9152C36.586 43.5911 35.5083 44.6687 35.5083 45.998C35.5083 47.3272 36.586 48.4048 37.9152 48.4048H42.7289C45.8306 48.4048 48.345 45.8905 48.345 42.7888V37.975C48.345 34.8734 45.8306 32.359 42.7289 32.359H41.1244C40.6812 32.359 40.3221 31.9999 40.3221 31.5567V26.743C40.3221 26.2998 40.6812 25.9407 41.1244 25.9407H45.9381C47.2673 25.9407 48.345 24.863 48.345 23.5338C48.345 22.2045 47.2673 21.1269 45.9381 21.1269H41.1244C38.0227 21.1269 35.5083 23.6413 35.5083 26.743Z" fill="#C3AEFF"/>
</svg>
