<svg width="25" height="29" viewBox="0 0 25 29" fill="none" xmlns="http://www.w3.org/2000/svg">
<g clip-path="url(#clip0_1_154)">
<g clip-path="url(#clip1_1_154)">
<g clip-path="url(#clip2_1_154)">
<path d="M5.81935 8.20264H0.800565C0.577823 8.20264 0.397339 8.3832 0.397339 8.60586V24.7291C0.397339 24.9518 0.577823 25.1323 0.800565 25.1323H5.81935C6.0421 25.1323 6.22258 24.9518 6.22258 24.7291V8.60586C6.22258 8.3832 6.0421 8.20264 5.81935 8.20264Z" fill="#CCCCCC" stroke="#CCCCCC" stroke-width="0.0806452"/>
<path d="M3.31177 0.1875C1.48565 0.1875 0 1.67153 0 3.49565C0 5.32056 1.48565 6.80516 3.31177 6.80516C5.13645 6.80516 6.62089 5.32048 6.62089 3.49565C6.62097 1.67153 5.13645 0.1875 3.31177 0.1875Z" fill="#CCCCCC" stroke="#CCCCCC" stroke-width="0.0806452"/>
<path d="M18.585 7.802C16.5693 7.802 15.0792 8.66853 14.1754 9.65313V8.60595C14.1754 8.38329 13.9949 8.20273 13.7722 8.20273H8.96582C8.74308 8.20273 8.56259 8.38329 8.56259 8.60595V24.7292C8.56259 24.9519 8.74308 25.1324 8.96582 25.1324H13.9736C14.1964 25.1324 14.3769 24.9519 14.3769 24.7292V16.7519C14.3769 14.0638 15.107 13.0165 16.9809 13.0165C19.0217 13.0165 19.1839 14.6954 19.1839 16.8902V24.7293C19.1839 24.952 19.3644 25.1325 19.5871 25.1325H24.5968C24.8195 25.1325 25 24.952 25 24.7293V15.8854C25 11.8882 24.2378 7.802 18.585 7.802Z" fill="#CCCCCC" stroke="#CCCCCC" stroke-width="0.0806452"/>
</g>
</g>
</g>
<defs>
<clipPath id="clip0_1_154">
<rect width="25" height="25" fill="white" transform="translate(0 0.159912)"/>
</clipPath>
<clipPath id="clip1_1_154">
<rect width="25" height="25" fill="white" transform="translate(0 0.159912)"/>
</clipPath>
<clipPath id="clip2_1_154">
<rect width="25" height="25" fill="white" transform="translate(0 0.159912)"/>
</clipPath>
</defs>
</svg>
