<svg width="29" height="30" viewBox="0 0 29 30" fill="none" xmlns="http://www.w3.org/2000/svg">
<g clip-path="url(#clip0_1_166)">
<g clip-path="url(#clip1_1_166)">
<path d="M14.5 2.87476C11.6308 2.87487 8.85522 3.89594 6.66995 5.75524C4.48468 7.61454 3.03231 10.1908 2.57269 13.0229C2.11308 15.8551 2.67623 18.7584 4.16137 21.2133C5.64651 23.6683 7.95673 25.5147 10.6787 26.4221C11.2828 26.5279 11.5094 26.1654 11.5094 25.8482C11.5094 25.5612 11.4943 24.6096 11.4943 23.5977C8.45833 24.1565 7.67291 22.8576 7.43124 22.1779C7.16308 21.5169 6.73799 20.9311 6.1927 20.4711C5.76978 20.2445 5.16562 19.6857 6.17758 19.6706C6.56399 19.7125 6.9346 19.847 7.258 20.0626C7.58141 20.2782 7.84807 20.5686 8.03541 20.9091C8.20067 21.206 8.4229 21.4674 8.68935 21.6782C8.9558 21.8891 9.26123 22.0453 9.58816 22.1379C9.91508 22.2305 10.2571 22.2577 10.5945 22.2179C10.932 22.1781 11.2582 22.0721 11.5547 21.906C11.607 21.2917 11.8807 20.7174 12.325 20.2899C9.63645 19.9878 6.82708 18.9456 6.82708 14.3238C6.8101 13.1228 7.25324 11.9609 8.06562 11.0764C7.69621 10.0326 7.73943 8.8872 8.18645 7.87427C8.18645 7.87427 9.19839 7.55707 11.5094 9.11281C13.4865 8.56903 15.5739 8.56903 17.551 9.11281C19.8619 7.54198 20.8739 7.87427 20.8739 7.87427C21.321 8.88718 21.3643 10.0326 20.9948 11.0764C21.8096 11.9594 22.2531 13.1223 22.2333 14.3238C22.2333 18.9607 19.4088 19.9878 16.7203 20.2899C17.0087 20.5822 17.2308 20.9331 17.3715 21.3188C17.5122 21.7045 17.5683 22.116 17.5359 22.5253C17.5359 24.1415 17.5208 25.4404 17.5208 25.8482C17.5208 26.1654 17.7474 26.543 18.3515 26.4222C21.0687 25.5073 23.3723 23.6566 24.8511 21.2004C26.3299 18.7442 26.8877 15.8424 26.4249 13.013C25.9621 10.1835 24.5088 7.61066 22.3245 5.75362C20.1402 3.89658 17.367 2.87625 14.5 2.87476Z" fill="#3C5100"/>
</g>
</g>
<defs>
<clipPath id="clip0_1_166">
<rect width="29" height="29" fill="white" transform="translate(0 0.159912)"/>
</clipPath>
<clipPath id="clip1_1_166">
<rect width="29" height="29" fill="white" transform="translate(0 0.159912)"/>
</clipPath>
</defs>
</svg>
