<svg width="80" height="80" viewBox="0 0 80 80" fill="none" xmlns="http://www.w3.org/2000/svg">
<g clip-path="url(#clip0_1_442)">
<g clip-path="url(#clip1_1_442)">
<path fill-rule="evenodd" clip-rule="evenodd" d="M0.682186 0.483379C0.157947 0.971674 -0.000947355 1.65167 0.261172 2.28449C0.377117 2.56449 17.8269 20.1481 39.0387 41.3593C76.8453 79.1652 77.6191 79.9252 78.3078 79.9252C78.6942 79.9252 79.1642 79.8428 79.3522 79.7424C79.7943 79.5057 80.1456 78.443 79.9535 77.9236C79.8355 77.6045 7.47924 5.01979 3.41251 1.14071C2.19426 -0.0213222 1.42302 -0.206944 0.682186 0.483379ZM63.3644 14.3492C55.5274 22.1811 48.9513 28.8474 48.7511 29.1636C48.2652 29.9306 48.2923 30.3835 48.8643 31.0631C49.2562 31.5291 49.4783 31.6303 50.108 31.6303H50.8744L63.6348 18.867C70.6531 11.8473 76.4599 6.08227 76.5386 6.05592C76.6175 6.02974 76.6785 15.8585 76.6743 27.8976C76.6698 39.9368 76.7113 50.4685 76.7664 51.3014C76.8874 53.135 77.1141 53.4428 78.3425 53.4428C78.9703 53.4428 79.2962 53.3378 79.5956 53.0384L80 52.6338V26.8167V0.999323L79.4827 0.554344C79.1393 0.259045 78.7384 0.109553 78.2897 0.109553C77.6402 0.109553 77.0573 0.665867 63.3644 14.3492ZM0.780804 24.1188C0.019145 24.6972 0.0268866 24.4384 0.00808473 50.1556C-0.00168486 63.7409 0.0338914 75.8686 0.0871633 77.1064C0.199237 79.7009 0.323661 79.9094 1.76864 79.9193C2.40053 79.9238 2.70486 79.8268 2.96679 79.5372C3.30744 79.1608 3.32071 78.4087 3.41011 54.3298L3.50228 29.5105L15.3469 41.3638C22.1338 48.1558 27.4073 53.2911 27.6971 53.3907C28.5159 53.6714 29.2625 53.3658 29.6448 52.5931C29.8567 52.1649 29.9327 51.7619 29.8507 51.5033C29.779 51.2775 23.5965 44.9717 16.1117 37.4906C2.80569 24.1908 2.48735 23.8884 1.79371 23.8884C1.40348 23.8884 0.947808 23.9921 0.780804 24.1188Z" fill="url(#paint0_linear_1_442)"/>
</g>
</g>
<defs>
<linearGradient id="paint0_linear_1_442" x1="-40.1844" y1="8.57151" x2="-98.6175" y2="74.9309" gradientUnits="userSpaceOnUse">
<stop color="#00B6FF"/>
<stop offset="1" color="#00B6FF" stop-opacity="0"/>
</linearGradient>
<clipPath id="clip0_1_442">
<rect width="80" height="80" fill="white"/>
</clipPath>
<clipPath id="clip1_1_442">
<rect width="80.1843" height="80" fill="white" transform="translate(-0.0921631)"/>
</clipPath>
</defs>
</svg>
