<svg width="78" height="78" viewBox="0 0 78 78" fill="none" xmlns="http://www.w3.org/2000/svg">
<g clip-path="url(#clip0_1_126)">
<g clip-path="url(#clip1_1_126)">
<path d="M62.1354 27.8255C61.3662 27.5628 60.5915 27.3181 59.8113 27.0914C59.9407 26.5649 60.06 26.0354 60.1693 25.5029C61.9293 16.9435 60.7786 10.0478 56.8508 7.77778C53.0901 5.59956 46.9225 7.86954 40.7007 13.297C40.089 13.8326 39.4897 14.3841 38.9031 14.9518C38.512 14.5747 38.1108 14.2056 37.6996 13.8446C31.1785 8.04103 24.6423 5.59655 20.7191 7.87405C16.9584 10.0568 15.8407 16.5388 17.4247 24.6515C17.5832 25.4538 17.7612 26.2525 17.9587 27.0478C17.0336 27.3111 16.14 27.5924 15.2856 27.8902C7.64979 30.5604 2.76685 34.7468 2.76685 39.0882C2.76685 43.574 8.00782 48.0719 15.9701 50.7992C16.6159 51.0188 17.2678 51.2229 17.9256 51.4114C17.712 52.2628 17.523 53.1238 17.3585 53.9943C15.8542 61.9671 17.0276 68.2956 20.7808 70.4648C24.6574 72.7047 31.1604 70.4032 37.4996 64.8523C38.001 64.413 38.5024 63.9492 39.0039 63.4608C39.6377 64.0736 40.2895 64.6683 40.9594 65.2449C47.097 70.537 53.1578 72.6746 56.905 70.4994C60.7786 68.252 62.0377 61.4526 60.4025 53.1805C60.2771 52.5487 60.1327 51.9038 59.9692 51.2459C60.4265 51.1106 60.8743 50.9707 61.3126 50.8262C69.5862 48.0779 74.9761 43.6342 74.9761 39.0927C74.9731 34.7303 69.9337 30.5167 62.1354 27.8255ZM42.73 15.6287C48.0597 10.9789 53.042 9.14368 55.3134 10.4554C57.7308 11.8529 58.671 17.488 57.1517 24.8786C57.0514 25.36 56.9431 25.8399 56.8268 26.3182C53.6461 25.5948 50.4208 25.0842 47.1722 24.7899C45.3122 22.1105 43.2732 19.56 41.0693 17.1556C41.6088 16.6321 42.1614 16.1231 42.727 15.6287H42.73ZM24.0872 42.7978C24.7401 44.0614 25.4226 45.3095 26.1346 46.542C26.8597 47.7996 27.6153 49.0386 28.4016 50.2591C26.1663 50.0161 23.945 49.6581 21.7466 49.1866C22.3844 47.1227 23.1696 44.979 24.0872 42.7978ZM24.0872 35.5275C23.1847 33.3929 22.4205 31.2929 21.7932 29.2652C23.8541 28.8033 26.0504 28.4258 28.3399 28.1399C27.5727 29.3374 26.8346 30.5523 26.1256 31.7848C25.4165 33.0174 24.7356 34.2649 24.0827 35.5275H24.0872ZM25.7269 39.1634C26.6776 37.1808 27.7016 35.2362 28.7987 33.3298C29.8948 31.4243 31.0617 29.5625 32.2992 27.7443C34.4473 27.5818 36.6496 27.4961 38.8745 27.4961C41.0993 27.4961 43.3152 27.5818 45.4618 27.7458C46.6863 29.56 47.8461 31.4153 48.9412 33.3117C50.0364 35.2081 51.0738 37.1437 52.0536 39.1183C51.0869 41.108 50.0519 43.0606 48.9488 44.976C47.8546 46.8815 46.7013 48.7488 45.4889 50.578C43.3453 50.7285 41.1264 50.8112 38.87 50.8112C36.6135 50.8112 34.4368 50.7405 32.3323 50.6036C31.0857 48.7794 29.9094 46.9096 28.8032 44.9941C27.6971 43.0786 26.6701 41.1351 25.7224 39.1634H25.7269ZM51.6189 46.5209C52.346 45.2593 53.044 43.9812 53.7129 42.6865C54.6298 44.7656 55.4392 46.8904 56.1378 49.0527C53.9135 49.5535 51.6645 49.9377 49.4001 50.2035C50.1642 48.991 50.9038 47.7635 51.6189 46.5209ZM53.6828 35.529C53.0169 34.2604 52.3244 33.0068 51.6054 31.7683C50.9033 30.5468 50.1718 29.3404 49.4106 28.149C51.7137 28.4408 53.9235 28.8289 55.9949 29.3028C55.3289 31.4156 54.5572 33.4936 53.6828 35.529ZM38.9046 19.3654C40.4067 21.0067 41.825 22.7228 43.1542 24.5071C40.3111 24.3717 37.466 24.3717 34.6188 24.5071C36.0223 22.6508 37.4589 20.9283 38.9046 19.3654ZM22.2716 10.5472C24.6875 9.14518 30.0292 11.1489 35.6598 16.1537C36.0193 16.4741 36.3819 16.8096 36.7429 17.1571C34.5276 19.5611 32.4743 22.1095 30.5963 24.7854C27.355 25.0774 24.136 25.5799 20.9598 26.2897C20.7763 25.5515 20.6108 24.8084 20.4634 24.0603C19.102 17.1059 20.0031 11.8634 22.2716 10.5472ZM18.75 48.4329C18.1483 48.2614 17.5541 48.0754 16.9674 47.8748C13.4474 46.6714 10.5395 45.1009 8.54335 43.3905C6.75624 41.8576 5.85065 40.3278 5.85065 39.0882C5.85065 36.4542 9.77085 33.0936 16.3085 30.8146C17.1299 30.5288 17.9582 30.2675 18.7936 30.0308C19.7646 33.1512 20.9405 36.204 22.3137 39.1694C20.9241 42.1759 19.7337 45.2703 18.75 48.4329ZM35.4673 62.5237C32.6647 64.9787 29.8577 66.7191 27.3832 67.5961C25.1598 68.3829 23.3893 68.4055 22.3197 67.7872C20.0422 66.4709 19.0945 61.3879 20.3867 54.5704C20.5401 53.7681 20.7156 52.9659 20.9132 52.1636C24.1212 52.8546 27.3724 53.3265 30.6445 53.5761C32.5407 56.2659 34.6111 58.8287 36.8422 61.248C36.3939 61.6888 35.9351 62.113 35.4673 62.5237ZM38.9903 59.0307C37.5281 57.4497 36.069 55.7002 34.6459 53.8198C36.0289 53.8739 37.4369 53.901 38.87 53.901C40.3412 53.901 41.7973 53.8694 43.2324 53.8048C41.9081 55.6177 40.4922 57.3619 38.9903 59.0307ZM57.7218 63.3315C57.2916 65.6541 56.4266 67.2035 55.3571 67.8233C53.0811 69.1441 48.2147 67.4277 42.9677 62.9012C42.366 62.3838 41.7642 61.8287 41.152 61.2465C43.3397 58.8178 45.3615 56.2446 47.2038 53.5445C50.4939 53.2657 53.761 52.7606 56.9817 52.0327C57.1291 52.6284 57.2595 53.2121 57.3728 53.7837C58.0964 57.4391 58.2002 60.7456 57.7218 63.3315ZM60.3393 47.8914C59.9452 48.0222 59.539 48.1486 59.1268 48.2719C58.1169 45.1369 56.8951 42.0741 55.4699 39.1048C56.8417 36.175 58.0156 33.1566 58.9839 30.07C59.7225 30.2851 60.4401 30.5107 61.1306 30.7499C67.8126 33.0545 71.8893 36.4662 71.8893 39.0882C71.8893 41.8862 67.4862 45.5176 60.3393 47.8914Z" fill="#C3AEFF"/>
<path d="M38.87 45.5507C40.1502 45.5549 41.4029 45.179 42.4694 44.4708C43.5359 43.7626 44.3683 42.7538 44.8611 41.5722C45.3539 40.3906 45.485 39.0894 45.2378 37.8332C44.9906 36.5771 44.3762 35.4226 43.4724 34.5158C42.5686 33.6091 41.4161 32.9909 40.1607 32.7396C38.9054 32.4883 37.6037 32.6152 36.4205 33.1041C35.2374 33.5931 34.2259 34.4222 33.5142 35.4863C32.8025 36.5505 32.4226 37.802 32.4226 39.0822C32.4208 39.9304 32.5862 40.7706 32.9093 41.5548C33.2324 42.3391 33.7069 43.0519 34.3057 43.6526C34.9045 44.2534 35.6158 44.7302 36.399 45.0559C37.1821 45.3816 38.0218 45.5497 38.87 45.5507Z" fill="#C3AEFF"/>
</g>
</g>
<defs>
<clipPath id="clip0_1_126">
<rect width="77.02" height="77.02" fill="white" transform="translate(0.359985 0.639893)"/>
</clipPath>
<clipPath id="clip1_1_126">
<rect width="77.02" height="77.02" fill="white" transform="translate(0.359985 0.639893)"/>
</clipPath>
</defs>
</svg>
