<svg width="69" height="52" viewBox="0 0 69 52" fill="none" xmlns="http://www.w3.org/2000/svg">
<path d="M59.0135 29.9336C56.8971 29.9364 54.809 30.4203 52.9072 31.3488C52.3118 30.3607 51.852 29.2969 51.5401 28.1862C51.361 27.3155 51.3195 26.4221 51.4174 25.5386C51.6231 24.5664 51.89 23.6082 52.2165 22.6696C52.2044 22.5469 52.0696 21.9668 50.7146 21.9476C49.3595 21.9283 48.1922 22.2051 48.067 22.5637C47.8317 23.2188 47.6427 23.8895 47.5014 24.5711C46.3799 27.3378 44.9994 29.9924 43.3784 32.4993C42.4702 31.0104 42.0967 29.2564 42.3194 27.5267C42.5251 26.5545 42.792 25.5963 43.1185 24.6577C43.1064 24.535 42.9716 23.9549 41.6166 23.9356C40.2615 23.9164 39.0942 24.1932 38.969 24.5518C38.8439 24.9104 38.685 25.7552 38.4034 26.5591C38.1218 27.363 34.834 34.7088 33.9723 36.603C33.5295 37.5658 33.1468 38.3504 32.8772 38.8799C32.8644 38.9143 32.8483 38.9474 32.8291 38.9786C32.5884 39.4335 32.4608 39.6814 32.4608 39.6814V39.6935C32.2755 40.0256 32.0781 40.3337 31.9795 40.3337C31.8073 39.646 31.8156 38.9256 32.0035 38.2421C32.4849 35.6932 33.6643 31.7315 33.6522 31.5943C33.6522 31.5197 33.8737 30.8313 32.8892 30.4751C32.6609 30.3665 32.4046 30.3313 32.1554 30.3744C31.9063 30.4175 31.6766 30.5368 31.4981 30.7158C31.4114 30.7158 31.3513 30.9252 31.3513 30.9252C31.3513 30.9252 32.4223 26.4701 29.3078 26.4701C28.095 26.714 26.9432 27.1981 25.9201 27.8937C24.8971 28.5894 24.0235 29.4826 23.3508 30.5209C22.5132 30.9758 20.7297 31.9481 18.8211 32.9951C18.099 33.4019 17.3432 33.8086 16.6428 34.1986C16.5947 34.1504 16.5442 34.0878 16.496 34.0397C12.7052 30.001 5.73729 27.1512 6.03815 21.7478C6.14887 19.779 6.8252 14.609 19.418 8.32947C29.782 3.22208 38.0303 4.63732 39.4576 7.77589C41.501 12.2575 35.0386 20.5781 24.3304 21.7839C23.1458 22.0242 21.9222 21.9952 20.7503 21.699C19.5784 21.4028 18.488 20.847 17.5599 20.0726C16.9942 19.4565 16.9076 19.4203 16.6982 19.5431C16.354 19.7284 16.5755 20.282 16.6982 20.6021C17.1067 21.3414 17.6592 21.9913 18.3232 22.5134C18.9871 23.0355 19.7489 23.4193 20.5636 23.642C24.7762 24.5523 29.1683 24.1171 33.1203 22.3977C39.6189 19.8873 44.6733 12.9073 43.1907 7.06104C41.7008 1.1281 31.8543 -0.828692 22.5349 2.48798C16.6976 4.45217 11.304 7.54604 6.66153 11.5932C1.52767 16.3949 0.716552 20.566 1.0487 22.3158C2.25214 28.5207 10.799 32.5571 14.2191 35.5536C14.0458 35.6523 13.887 35.739 13.7522 35.8112C12.0409 36.6608 5.51827 40.0713 3.884 43.6768C2.03793 47.7685 4.18004 50.6929 5.59529 51.0876C7.72779 51.5981 9.96647 51.4299 11.9988 50.6066C14.0311 49.7833 15.7557 48.346 16.9317 46.4953C17.9331 44.9602 18.5486 43.2058 18.7259 41.3816C18.9032 39.5574 18.6369 37.7173 17.9498 36.0182C17.9382 35.9907 17.9219 35.9654 17.9016 35.9435L19.2423 35.1565C20.116 34.639 20.9776 34.1601 21.7165 33.7653C21.2155 35.2105 20.9213 36.7193 20.8428 38.2469C20.6727 40.5883 21.3892 42.908 22.8502 44.7455C23.0725 44.9368 23.3305 45.0822 23.6094 45.1731C23.8883 45.264 24.1824 45.2986 24.4748 45.275C25.9189 45.275 26.5808 44.0716 27.3053 42.6419C28.191 40.8945 28.9901 38.8631 28.9901 38.8631C28.9901 38.8631 27.9937 44.3532 30.7014 44.3532C31.6858 44.3532 32.6823 43.0727 33.1275 42.4277V42.4397C33.1275 42.4397 33.1516 42.4036 33.2021 42.3169L33.361 42.0594V42.0353C33.7557 41.347 34.6415 39.7825 35.958 37.1855C37.6573 33.8375 39.2939 29.652 39.2939 29.652C39.4518 30.5718 39.6697 31.4804 39.9462 32.3717C40.3426 33.4523 40.8114 34.5049 41.3494 35.5223C40.9547 36.0759 40.7092 36.384 40.7092 36.384L40.7212 36.396C40.4011 36.8148 40.0569 37.2697 39.6742 37.7126C38.5356 38.9644 37.4792 40.2885 36.5116 41.6767C36.3678 41.9099 36.3184 42.1891 36.3734 42.4575C36.4284 42.7258 36.5837 42.9631 36.8076 43.1208C37.3143 43.3845 37.8918 43.4798 38.4564 43.3928C39.3071 43.3448 40.1435 43.1536 40.9306 42.8272C41.6912 42.5595 42.4088 42.1825 43.0607 41.708C43.7328 41.2424 44.2738 40.6117 44.6316 39.8766C44.9895 39.1415 45.1522 38.3266 45.1041 37.5104C45.0285 36.4823 44.7658 35.4766 44.3291 34.5427C44.4519 34.3694 44.5698 34.1986 44.6853 34.0253C46.0537 31.9828 47.2871 29.8529 48.3775 27.6495C48.5353 28.5693 48.7532 29.4778 49.0298 30.3692C49.3567 31.303 49.7592 32.2085 50.2332 33.077C48.659 34.2881 47.419 35.8801 46.6301 37.703C45.8551 39.9438 46.4568 40.9523 47.5928 41.1857C48.2145 41.2286 48.836 41.1013 49.3908 40.8175C50.2064 40.5494 50.9748 40.1547 51.6677 39.6477C52.3983 39.2165 53.0103 38.6105 53.4485 37.884C53.8867 37.1576 54.1374 36.3336 54.1781 35.4862C54.1234 34.6404 53.9324 33.8089 53.6124 33.024C55.6898 32.2124 57.9422 31.9537 60.1495 32.2731C66.0079 32.9614 67.1656 36.6175 66.9441 38.1579C66.8403 38.704 66.6207 39.2215 66.3002 39.6757C65.9797 40.1298 65.5657 40.5101 65.086 40.791C64.6793 41.0485 64.5445 41.1352 64.5806 41.3205C64.6287 41.5925 64.8213 41.578 65.1702 41.5299C66.0532 41.2555 66.8322 40.7199 67.4046 39.9937C67.9769 39.2675 68.3157 38.3849 68.3762 37.4623C68.5615 33.852 65.1149 29.8927 59.0207 29.9288L59.0135 29.9336ZM13.8124 45.1643C11.8676 47.2823 9.15987 48.0814 7.99013 47.4051C6.73374 46.683 7.22715 43.5541 9.61477 41.3109C11.0311 40.0359 12.5619 38.8943 14.1878 37.9003C14.4718 37.727 14.8906 37.4815 15.3913 37.1783L15.5261 37.1037L15.8221 36.9183C16.2487 38.3475 16.2873 39.8645 15.9342 41.3135C15.581 42.7626 14.8487 44.0916 13.8124 45.1643ZM27.9672 35.5368C27.2909 37.1855 25.8756 41.4096 25.014 41.1737C24.275 40.9763 23.8105 37.7752 24.8671 34.6125C25.4006 33.0901 26.1777 31.6643 27.1681 30.3909C28.2271 29.2091 29.3969 28.8144 29.6785 29.2958C29.4216 31.4496 28.8448 33.5531 27.9672 35.5368ZM39.6478 41.1255C39.3637 41.2724 39.0942 41.3662 38.9714 41.2988C38.8848 41.2507 39.0942 41.0582 39.0942 41.0582C39.0942 41.0582 40.56 39.4817 41.1376 38.7692C41.4698 38.3504 41.8597 37.8594 42.2833 37.3034V37.4623C42.2833 39.3445 40.4613 40.6129 39.6502 41.1304L39.6478 41.1255ZM48.6591 39.0701C48.4497 38.9233 48.4858 38.4298 49.1886 36.8919C49.6773 35.9041 50.36 35.0249 51.1959 34.3069C51.3241 34.6712 51.3908 35.0543 51.3933 35.4405C51.4028 36.2626 51.1399 37.0646 50.6458 37.7216C50.1516 38.3786 49.4539 38.8536 48.6615 39.0725L48.6591 39.0701Z" fill="#C3AEFF"/>
</svg>
